HIERARCHY
ROOT hip
{
	OFFSET 0.000000 0.000000 0.000000
	CHANNELS 6 Xposition Yposition Zposition Zrotation Yrotation Xrotation 
	JOINT lhipjoint
	{
		OFFSET 0.000000 0.000000 0.000000
		CHANNELS 3 Zrotation Yrotation Xrotation
		JOINT lfemur
		{
			OFFSET 1.363060 -1.794630 0.839290
			CHANNELS 3 Zrotation Yrotation Xrotation
			JOINT ltibia
			{
				OFFSET 2.448110 -6.726130 0.000000
				CHANNELS 3 Zrotation Yrotation Xrotation
				JOINT lfoot
				{
					OFFSET 2.562200 -7.039590 0.000000
					CHANNELS 3 Zrotation Yrotation Xrotation
					JOINT ltoes
					{
						OFFSET 0.157640 -0.433110 2.322550
						CHANNELS 3 Zrotation Yrotation Xrotation
						End Site
						{
							OFFSET 0.000000 0.000000 0.000000
						}
					}
				}
			}
		}
	}
	JOINT rhipjoint
	{
		OFFSET 0.000000 0.000000 0.000000
		CHANNELS 3 Zrotation Yrotation Xrotation
		JOINT rfemur
		{
			OFFSET -1.305520 -1.794630 0.839290
			CHANNELS 3 Zrotation Yrotation Xrotation
			JOINT rtibia
			{
				OFFSET -2.542530 -6.985550 0.000000
				CHANNELS 3 Zrotation Yrotation Xrotation
				JOINT rfoot
				{
					OFFSET -2.568260 -7.056230 0.000000
					CHANNELS 3 Zrotation Yrotation Xrotation
					JOINT rtoes
					{
						OFFSET -0.164730 -0.452590 2.363150
						CHANNELS 3 Zrotation Yrotation Xrotation
						End Site
						{
							OFFSET 0.000000 0.000000 0.000000
						}
					}
				}
			}
		}
	}
	JOINT lowerback
	{
		OFFSET 0.000000 0.000000 0.000000
		CHANNELS 3 Zrotation Yrotation Xrotation
		JOINT upperback
		{
			OFFSET 0.028270 2.035590 -0.193380
			CHANNELS 3 Zrotation Yrotation Xrotation
			JOINT thorax
			{
				OFFSET 0.056720 2.048850 -0.042750
				CHANNELS 3 Zrotation Yrotation Xrotation
				JOINT lowerneck
				{
					OFFSET 0.000000 0.000000 0.000000
					CHANNELS 3 Zrotation Yrotation Xrotation
					JOINT upperneck
					{
						OFFSET -0.054170 1.746240 0.172020
						CHANNELS 3 Zrotation Yrotation Xrotation
						JOINT head
						{
							OFFSET 0.104070 1.761360 -0.123970
							CHANNELS 3 Zrotation Yrotation Xrotation
							End Site
							{
								OFFSET 0.000000 0.000000 0.000000
							}
						}
					}
				}
				JOINT lclavicle
				{
					OFFSET 0.000000 0.000000 0.000000
					CHANNELS 3 Zrotation Yrotation Xrotation
					JOINT lhumerus
					{
						OFFSET 3.362410 1.200890 -0.311210
						CHANNELS 3 Zrotation Yrotation Xrotation
						JOINT lradius
						{
							OFFSET 4.983000 -0.000000 -0.000000
							CHANNELS 3 Zrotation Yrotation Xrotation
							JOINT lwrist
							{
								OFFSET 3.483560 -0.000000 -0.000000
								CHANNELS 3 Zrotation Yrotation Xrotation
								JOINT lhand
								{
									OFFSET 0.000000 0.000000 0.000000
									CHANNELS 3 Zrotation Yrotation Xrotation
									JOINT lfingers
									{
										OFFSET 0.715260 -0.000000 -0.000000
										CHANNELS 3 Zrotation Yrotation Xrotation
										End Site
										{
											OFFSET 0.000000 0.000000 0.000000
										}
									}
								}
								JOINT lthumb
								{
									OFFSET 0.000000 0.000000 0.000000
									CHANNELS 3 Zrotation Yrotation Xrotation
									End Site
									{
										OFFSET 0.000000 0.000000 0.000000
									}
								}
							}
						}
					}
				}
				JOINT rclavicle
				{
					OFFSET 0.000000 0.000000 0.000000
					CHANNELS 3 Zrotation Yrotation Xrotation
					JOINT rhumerus
					{
						OFFSET -3.136600 1.374050 -0.404650
						CHANNELS 3 Zrotation Yrotation Xrotation
						JOINT rradius
						{
							OFFSET -5.241900 -0.000000 -0.000000
							CHANNELS 3 Zrotation Yrotation Xrotation
							JOINT rwrist
							{
								OFFSET -3.444170 -0.000000 -0.000000
								CHANNELS 3 Zrotation Yrotation Xrotation
								JOINT rhand
								{
									OFFSET 0.000000 0.000000 0.000000
									CHANNELS 3 Zrotation Yrotation Xrotation
									JOINT rfingers
									{
										OFFSET -0.622530 -0.000000 -0.000000
										CHANNELS 3 Zrotation Yrotation Xrotation
										End Site
										{
											OFFSET 0.000000 0.000000 0.000000
										}
									}
								}
								JOINT rthumb
								{
									OFFSET 0.000000 0.000000 0.000000
									CHANNELS 3 Zrotation Yrotation Xrotation
									End Site
									{
										OFFSET 0.000000 0.000000 0.000000
									}
								}
							}
						}
					}
				}
			}
		}
	}
}
MOTION
Frames: 9
Frame Time: 0.008333
3.265572 16.842484 4.399094 -175.715764 -4.473381 -169.720655 -4.623819 -2.517611 -1.628691 -9.284861 0.716711 -18.000752 4.554703 13.214853 36.673180 1.316986 -7.650778 -21.106235 0.407600 -4.098300 -11.353500 4.672314 0.544136 0.650053 17.240482 5.344076 -41.713135 -9.021797 -13.108744 48.507101 -0.555934 13.546564 -5.585548 -0.149800 2.494100 -6.873400 0.217393 0.349727 4.415415 0.704096 -0.158960 -3.426506 -6.388516 -0.278716 8.799009 -5.764308 1.770354 -6.738054 3.918403 2.071307 13.465941 0.395400 1.304800 1.634700 -5.802772 -3.901190 3.487346 -59.516700 -12.573918 48.895323 35.549990 -44.738980 -13.737900 0.248654 1.078404 17.870129 15.838920 -5.691703 -1.946700 -7.125000 0.000000 0.000000 -7.943000 22.891500 4.267500 5.259747 3.549777 3.804268 79.858017 -2.566435 5.962515 -6.970001 27.248017 -2.247645 -0.497732 -1.245313 13.800912 -11.221616 13.499340 -2.865500 7.125000 0.000000 0.000000 11.167400 -15.046200 8.042200 
3.259391 16.850726 4.413336 -175.684312 -4.540241 -169.653692 -4.626142 -2.514296 -1.630806 -9.262831 0.758750 -18.124393 4.540691 13.186160 36.592893 1.303532 -7.771663 -20.977905 0.409300 -4.107100 -11.378100 4.683690 0.536188 0.658470 17.411907 5.296975 -41.895840 -9.067856 -13.140922 48.702447 -0.591946 13.012387 -6.029320 -0.152600 2.517200 -6.937400 0.202204 0.310159 4.508453 0.709142 -0.224144 -3.416864 -6.360224 -0.307789 8.795363 -5.886902 1.847134 -6.711952 4.092409 2.135689 13.389661 0.480600 1.338200 1.593400 -5.822896 -3.931814 3.491344 -59.468349 -12.888350 48.690408 35.870148 -44.925202 -13.941785 0.243751 1.085177 17.977051 15.916933 -5.576458 -1.926500 -7.125000 0.000000 0.000000 -7.883200 23.001600 4.214800 5.292519 3.549195 3.806179 79.790895 -2.874350 6.779965 -7.387334 27.730668 -2.323622 -0.493078 -1.284639 13.179408 -11.148394 13.509978 -2.854500 7.125000 0.000000 0.000000 11.216300 -15.005500 8.088700 
3.253031 16.857623 4.426863 -175.667080 -4.613863 -169.578613 -4.628365 -2.509689 -1.631486 -9.254569 0.818332 -18.267864 4.529844 13.160155 36.526210 1.287978 -7.936996 -20.826995 0.399600 -4.058400 -11.240900 4.693822 0.527271 0.665738 17.543521 5.330166 -42.046260 -9.116670 -13.173879 48.909168 -0.629458 12.498869 -6.536829 -0.160800 2.583700 -7.121700 0.185759 0.268704 4.598872 0.714409 -0.290653 -3.408884 -6.323893 -0.337137 8.787666 -6.037334 1.915860 -6.694485 4.281330 2.186883 13.321920 0.578700 1.364200 1.557500 -5.842898 -3.964560 3.495266 -59.466725 -13.202895 48.468185 36.134798 -45.074899 -14.113144 0.240320 1.097935 18.025916 16.078308 -5.513264 -1.933300 -7.125000 0.000000 0.000000 -7.760500 23.047900 4.139700 5.326755 3.546916 3.806676 79.693206 -3.192060 7.628373 -7.812223 28.212921 -2.402394 -0.489572 -1.321706 12.504489 -11.074979 13.550236 -2.847500 7.125000 0.000000 0.000000 11.267100 -14.937400 8.143700 
3.247029 16.864162 4.438956 -175.649783 -4.681014 -169.509158 -4.628762 -2.506751 -1.633039 -9.243962 0.928813 -18.429556 4.519866 13.137044 36.468295 1.270977 -8.135596 -20.663217 0.388700 -4.003500 -11.086400 4.700943 0.519174 0.668060 17.645283 5.455990 -42.148948 -9.167659 -13.208205 49.125962 -0.664179 11.978880 -7.023232 -0.158700 2.567200 -7.075900 0.189627 0.236647 4.676950 0.715754 -0.349762 -3.393327 -6.323488 -0.361380 8.822467 -6.143930 1.979949 -6.725428 4.465671 2.239665 13.257970 0.666900 1.392700 1.532900 -5.863276 -3.987715 3.498082 -59.455239 -13.528980 48.240470 36.400109 -45.224928 -14.287301 0.234118 1.110895 18.043965 16.252668 -5.424460 -1.934000 -7.125000 0.000000 0.000000 -7.627700 23.120700 4.054700 5.357065 3.540637 3.808090 79.633301 -3.478600 8.430710 -8.236995 28.692668 -2.484697 -0.485296 -1.364176 11.910181 -11.062612 13.520416 -2.845700 7.125000 0.000000 0.000000 11.276000 -14.928900 8.152500 
3.240311 16.871149 4.450780 -175.633604 -4.752950 -169.416773 -4.630476 -2.500442 -1.633816 -9.237912 0.988533 -18.600879 4.513584 13.114149 36.420323 1.255216 -8.301935 -20.510899 0.368400 -3.898500 -10.791300 4.714544 0.506415 0.676716 17.746789 5.575840 -42.303633 -9.222717 -13.240992 49.355067 -0.695930 11.563205 -7.481563 -0.169500 2.652100 -7.311700 0.213765 0.204526 4.746506 0.713595 -0.406856 -3.385218 -6.358880 -0.382294 8.826371 -6.170531 2.031448 -6.734056 4.606942 2.281267 13.186491 0.721500 1.416400 1.505200 -5.880757 -4.009771 3.498600 -59.411788 -13.805606 48.041883 36.677844 -45.382046 -14.471448 0.227481 1.123793 17.981027 16.441527 -5.354526 -1.941600 -7.125000 0.000000 0.000000 -7.484200 23.173600 3.968000 5.387351 3.547223 3.808156 79.590858 -3.788917 9.221824 -8.656530 29.165258 -2.568678 -0.482627 -1.407280 11.328445 -11.080455 13.490401 -2.851600 7.125000 0.000000 0.000000 11.265900 -14.917200 8.147700 
3.234667 16.877420 4.461261 -175.621667 -4.819411 -169.325007 -4.633692 -2.493291 -1.633536 -9.228055 1.099061 -18.796238 4.507801 13.095581 36.382282 1.238343 -8.517724 -20.350447 0.356300 -3.835100 -10.613200 4.725058 0.496485 0.681648 17.836953 5.736223 -42.438636 -9.279548 -13.273159 49.589553 -0.724716 11.247521 -7.890637 -0.180500 2.736500 -7.546100 0.216804 0.157129 4.805620 0.719410 -0.482130 -3.371846 -6.348973 -0.417279 8.872290 -6.186548 2.059948 -6.873120 4.673200 2.325845 13.186335 0.749600 1.441400 1.536900 -5.896152 -4.013292 3.492896 -59.408521 -14.091754 47.797184 36.944388 -45.531997 -14.650230 0.219898 1.137615 17.929941 16.624875 -5.269523 -1.943800 -7.125000 0.000000 0.000000 -7.344000 23.241600 3.880900 5.427260 3.556064 3.809326 79.495676 -4.057621 10.060919 -9.098352 29.641952 -2.656197 -0.474621 -1.452761 10.742693 -11.088747 13.383018 -2.842100 7.125000 0.000000 0.000000 11.260300 -14.981800 8.127700 
3.228307 16.883063 4.470487 -175.593910 -4.884405 -169.242688 -4.636909 -2.487767 -1.633031 -9.204593 1.233342 -18.994341 4.505006 13.082813 36.363103 1.221620 -8.737621 -20.195071 0.343600 -3.766600 -10.420900 4.733395 0.486997 0.685058 17.944663 5.902522 -42.561263 -9.334619 -13.303273 49.812380 -0.748137 11.083855 -8.188099 -0.198700 2.870400 -7.918300 0.259255 0.109779 4.876920 0.725247 -0.558611 -3.359001 -6.369212 -0.450658 8.908115 -6.125447 2.083245 -6.993249 4.683285 2.372572 13.158938 0.739200 1.468200 1.557400 -5.907973 -4.010963 3.486073 -59.385837 -14.336124 47.565965 37.238832 -45.700204 -14.849037 0.213609 1.149818 17.861037 16.794347 -5.211342 -1.951500 -7.125000 0.000000 0.000000 -7.214600 23.283700 3.804400 5.467473 3.572930 3.811818 79.411143 -4.320526 10.867097 -9.519310 30.093389 -2.742429 -0.467536 -1.498498 10.174455 -11.138442 13.259863 -2.840500 7.125000 0.000000 0.000000 11.228100 -15.058300 8.084700 
3.221768 16.887273 4.478370 -175.581274 -4.964648 -169.157021 -4.640960 -2.481174 -1.632057 -9.191005 1.369278 -19.208060 4.507930 13.076701 36.370876 1.205888 -9.003864 -20.048429 0.324700 -3.662600 -10.129500 4.742584 0.477192 0.688619 18.036609 6.066138 -42.685096 -9.386127 -13.329688 50.018974 -0.767472 11.081031 -8.390747 -0.222300 3.034800 -8.375700 0.294690 0.053805 4.943047 0.732439 -0.646678 -3.346278 -6.386239 -0.490113 8.946106 -6.073515 2.114044 -7.095266 4.706074 2.424459 13.081868 0.733600 1.497400 1.554900 -5.919991 -4.010393 3.480469 -59.350181 -14.560915 47.334374 37.524277 -45.863628 -15.046077 0.206624 1.164520 17.780899 17.021891 -5.154291 -1.967100 -7.125000 0.000000 0.000000 -7.041300 23.319700 3.705800 5.504539 3.583462 3.814458 79.326229 -4.547975 11.619086 -9.905618 30.503744 -2.824896 -0.463200 -1.540786 9.667770 -11.241532 13.154838 -2.855200 7.125000 0.000000 0.000000 11.161100 -15.115300 8.020600 
3.215408 16.888617 4.484462 -175.579935 -5.019356 -169.061118 -4.644747 -2.473243 -1.631854 -9.192979 1.510406 -19.438607 4.516599 13.077648 36.406538 1.192575 -9.292171 -19.924961 0.309100 -3.574100 -9.881500 4.751803 0.467422 0.690266 18.109232 6.255246 -42.801947 -9.431949 -13.348955 50.197707 -0.779489 11.341555 -8.418493 -0.228600 3.077300 -8.493900 0.331347 0.014243 4.986802 0.736304 -0.715004 -3.326934 -6.421511 -0.521048 9.027151 -5.973511 2.125003 -7.263691 4.691507 2.466157 13.021899 0.705600 1.522500 1.574700 -5.930479 -3.995713 3.471891 -59.286698 -14.805996 47.146513 37.818453 -46.033682 -15.249270 0.199423 1.179906 17.640318 17.277376 -5.115965 -1.992000 -7.125000 0.000000 0.000000 -6.847300 23.334300 3.599900 5.536692 3.590468 3.818237 79.275852 -4.695974 12.252914 -10.248377 30.868323 -2.899141 -0.457220 -1.578954 9.243843 -11.317257 13.045750 -2.861600 7.125000 0.000000 0.000000 11.111000 -15.182500 7.966800 
